<?xml version="1.0" encoding="UTF-8"?>
<svg version="1.1" xmlns="http://www.w3.org/2000/svg" width="463" height="493">
<path d="M0 0 C2.89167541 2.69224952 5.66039616 5.46602635 8.39453125 8.31640625 C10.4524495 10.4360312 12.50594006 12.39945107 14.75 14.3125 C18.73657041 17.7166702 22.55230734 21.28951612 26.375 24.875 C31.36343491 29.55081654 36.38699097 34.17711113 41.484375 38.734375 C45.03268798 41.9300606 48.53577726 45.17375265 52.04125977 48.41625977 C55.70710932 51.80702286 59.38024129 55.1895631 63.0625 58.5625 C63.55419678 59.01294678 64.04589355 59.46339355 64.55249023 59.92749023 C66.03482316 61.28517963 67.51736995 62.64263507 69 64 C75.72688606 70.15854189 82.44318077 76.32811854 89.14208984 82.51708984 C94.25440615 87.23861697 99.38347717 91.9416967 104.51611328 96.64111328 C107.01164407 98.92642496 109.50574527 101.2132958 112 103.5 C112.99999325 104.41667404 113.99999324 105.3333407 115 106.25 C121 111.75 127 117.25 133 122.75 C133.74237915 123.43050415 133.74237915 123.43050415 134.49975586 124.12475586 C135.50059668 125.04220685 136.50141045 125.95968736 137.50219727 126.87719727 C139.98911261 129.15710551 142.47648315 131.43651293 144.96484375 133.71484375 C150.70255956 138.96938349 156.42745017 144.23746288 162.14208984 149.51708984 C165.77558584 152.87283876 169.4160335 156.22085204 173.0625 159.5625 C174.51269531 160.8928125 174.51269531 160.8928125 175.9921875 162.25 C178.11567299 164.1950059 180.24732474 166.1306824 182.3828125 168.0625 C182.93573975 168.56450928 183.48866699 169.06651855 184.05834961 169.58374023 C185.12204721 170.54924546 186.18787568 171.51240977 187.25610352 172.47290039 C191.91496964 176.70930801 191.91496964 176.70930801 192.11893713 179.80536944 C192.11462402 180.91068165 192.11462402 180.91068165 192.11022377 182.0383234 C192.10934812 182.88815393 192.10847247 183.73798445 192.10757029 184.61356741 C192.10144862 185.55256005 192.09532695 186.49155268 192.08901978 187.45899963 C192.08523443 188.94895939 192.08523443 188.94895939 192.08137262 190.46901935 C192.07160101 193.81865525 192.05457353 197.16821568 192.03759766 200.51782227 C192.02909606 202.91055152 192.02102402 205.30328234 192.01335144 207.6960144 C191.9934157 213.53282398 191.96872962 219.36960202 191.9417484 225.20638222 C191.91992873 229.94792978 191.90007311 234.68948175 191.88163376 239.43104362 C191.87901163 240.1048967 191.8763895 240.77874978 191.87368792 241.47302265 C191.86837051 242.84176483 191.86305772 244.21050704 191.85774951 245.57924926 C191.80770223 258.42442412 191.75147532 271.2695663 191.69314377 284.11470585 C191.64318444 295.14766211 191.59847873 306.18062947 191.55761719 317.21362305 C191.51021036 330.01318108 191.45959085 342.81271966 191.40379179 355.61224407 C191.39785634 356.97575341 191.39192499 358.33926277 191.38599777 359.70277214 C191.38162019 360.7091943 191.38162019 360.7091943 191.37715418 361.73594822 C191.35676415 366.47488982 191.33868796 371.21383706 191.32149124 375.95279121 C191.2982993 382.32452861 191.26985244 388.69622921 191.23780251 395.06792831 C191.22680618 397.41377333 191.21752692 399.75962708 191.21003914 402.10548592 C191.19959186 405.2930271 191.18308604 408.48047872 191.16494751 411.66798401 C191.16328728 412.60920736 191.16162706 413.55043072 191.15991652 414.52017599 C191.11415025 420.88584975 191.11415025 420.88584975 190 422 C186.8546423 422.10029504 183.73116117 422.1343729 180.58532715 422.12698364 C179.58470796 422.12854363 178.58408877 422.13010362 177.55314779 422.13171089 C174.17278703 422.13572557 170.79247054 422.13252944 167.41210938 422.12939453 C164.99982171 422.13074836 162.58753425 422.13252819 160.17524719 422.13470459 C154.28684777 422.13880496 148.39846001 422.13818563 142.51006091 422.13529195 C137.72652941 422.13303808 132.94300148 422.13272532 128.1594696 422.13381577 C127.47993031 422.133969 126.80039102 422.13412223 126.10025963 422.13428011 C124.7200019 422.13459982 123.33974416 422.13492403 121.95948642 422.1352527 C109.00178915 422.13810762 96.04409895 422.13482028 83.08640283 422.12945233 C71.95619861 422.12498428 60.82600482 422.12576021 49.69580078 422.13037109 C36.7860295 422.13571665 23.87626441 422.13783293 10.96649218 422.13475883 C9.59117158 422.13444026 8.21585099 422.13412589 6.8405304 422.13381577 C6.16375908 422.13366149 5.48698776 422.13350721 4.78970823 422.13334826 C0.00919261 422.13248305 -4.77131909 422.13394607 -9.55183411 422.13629532 C-15.98017238 422.13938475 -22.40849554 422.13720079 -28.83683205 422.13140106 C-31.20364664 422.13007275 -33.57046289 422.13046877 -35.93727684 422.13266373 C-39.15331651 422.13537245 -42.36929165 422.13199752 -45.58532715 422.12698364 C-46.53501452 422.12921436 -47.48470189 422.13144509 -48.46316767 422.13374341 C-54.8858502 422.1141498 -54.8858502 422.1141498 -56 421 C-56.09650437 419.13971966 -56.12187292 417.27572971 -56.12025452 415.41294861 C-56.12231651 413.59342934 -56.12231651 413.59342934 -56.12442017 411.7371521 C-56.12088056 410.38067603 -56.11724575 409.0242002 -56.11352539 407.66772461 C-56.11324352 406.24887596 -56.11340124 404.83002716 -56.1139679 403.41117859 C-56.11425589 399.54771199 -56.1083589 395.68427617 -56.10139394 391.82081676 C-56.09516067 387.78757427 -56.09455662 383.75433115 -56.09336853 379.72108459 C-56.09025514 372.07834532 -56.08204164 364.43562027 -56.07201904 356.79288727 C-56.06085816 348.09411981 -56.05534752 339.39535169 -56.05032361 330.69657886 C-56.03985903 312.79770952 -56.02151345 294.8988597 -56 277 C-75.14 277 -94.28 277 -114 277 C-114 324.85 -114 372.7 -114 422 C-147.33 422 -180.66 422 -215 422 C-222.42366804 365.38515791 -222.42366804 365.38515791 -223.93847656 344.14453125 C-224.03200425 342.83755594 -224.12553193 341.53058064 -224.22189379 340.18400002 C-224.85683807 331.158323 -225.40102265 322.1287444 -225.88706708 313.09388828 C-225.96221161 311.70063423 -226.03836105 310.307434 -226.11552691 308.91429043 C-229.95599286 239.57254824 -226.65021913 179.79718648 -178.83209801 125.95230484 C-163.12426703 108.42215183 -146.33463505 92.14723623 -128.8329668 76.42228985 C-127.24579482 74.99622166 -125.66065548 73.56791944 -124.07570648 72.13938141 C-98.33817122 48.96892616 -71.79887975 26.81700649 -44.12278295 5.98534775 C-40.83634625 3.49499523 -37.91888433 0.92063741 -35 -2 C-23.83408281 -7.68829744 -10.11355805 -7.89688779 0 0 Z M-21.45814514 29.34461975 C-22.56459489 30.45121953 -23.66822827 31.56063902 -24.76977539 32.67211914 C-25.37154602 33.27535004 -25.97331665 33.87858093 -26.59332275 34.50009155 C-27.90616944 35.81675669 -29.21785932 37.13457603 -30.5285511 38.45338631 C-32.60779653 40.5453586 -34.6901174 42.63422374 -36.77330017 44.72227478 C-41.95393039 49.91630501 -47.12922056 55.11564574 -52.30456543 60.31494141 C-56.6648841 64.69506778 -61.02729182 69.07309342 -65.39245415 73.44839287 C-67.43502044 75.49740173 -69.47452626 77.54942314 -71.51393127 79.60157776 C-72.78395774 80.87524188 -74.05412771 82.14876293 -75.32446289 83.42211914 C-75.88322617 83.98604874 -76.44198944 84.54997833 -77.01768494 85.1309967 C-79.9002022 88.01389052 -82.84660293 90.76723085 -85.93235779 93.43235779 C-90.05647679 97.00291736 -93.91665832 100.78935336 -97.7578125 104.66015625 C-98.48740173 105.39120575 -99.21699097 106.12225525 -99.96868896 106.87545776 C-101.53898485 108.44953386 -103.1081254 110.02476323 -104.6762085 111.6010437 C-107.16340587 114.1011045 -109.65380092 116.59794072 -112.14501953 119.09399414 C-117.43283314 124.39318809 -122.71670683 129.69629967 -128 135 C-134.12637644 141.15004008 -140.25439126 147.29842884 -146.38665771 153.44259644 C-148.8303188 155.89270098 -151.27092848 158.34581693 -153.71142578 160.79907227 C-155.22153015 162.31281195 -156.73177667 163.82640985 -158.2421875 165.33984375 C-158.91151306 166.01433563 -159.58083862 166.68882751 -160.27044678 167.38375854 C-163.33712232 170.45077246 -166.43639973 173.41165602 -169.73486328 176.22875977 C-170.38333599 176.81049328 -171.0318087 177.39222679 -171.6999321 177.99158859 C-173.45619464 179.52515102 -175.27777784 180.98421905 -177.12492752 182.4070015 C-182.83549504 187.07672467 -186.52766881 191.11751424 -187.32345343 198.6533637 C-187.53876658 203.0791215 -187.46839093 207.47733648 -187.36230469 211.90527344 C-187.35891453 213.89716384 -187.3608301 215.8890692 -187.36761475 217.88095093 C-187.37104124 223.25743542 -187.30077539 228.63067103 -187.21672726 234.00640392 C-187.14142584 239.6356299 -187.13464031 245.26494036 -187.12042236 250.89459229 C-187.08320745 261.54094655 -186.98484928 272.18581228 -186.86422849 282.83151269 C-186.72983871 294.95710501 -186.6640558 307.08277053 -186.60388327 319.20892286 C-186.47863925 344.14029589 -186.2586826 369.06962979 -186 394 C-171.81 394 -157.62 394 -143 394 C-143 346.15 -143 298.3 -143 249 C-104.72 249 -66.44 249 -27 249 C-27 296.85 -27 344.7 -27 394 C35.37 394 97.74 394 162 394 C162.34966241 358.54410538 162.34966241 358.54410538 162.5859375 323.08789062 C162.65712047 308.6268401 162.74076279 294.16662908 162.90527344 279.70629883 C163.02503434 269.17439187 163.10233442 258.64316641 163.12906194 248.11059743 C163.14468182 242.53534355 163.18127701 236.96203894 163.26876068 231.38741112 C163.35052365 226.13451024 163.37528016 220.88435143 163.35729218 215.63087463 C163.36058013 213.70833718 163.3842761 211.78570336 163.4304657 209.86371803 C163.9493833 198.9407624 163.9493833 198.9407624 159.3620224 189.45679665 C156.47942985 186.60327184 153.32513058 184.31223008 150 182 C148.7915168 180.93225644 147.60004293 179.844293 146.44140625 178.72265625 C144.38948477 176.82664739 142.33739207 174.93082479 140.28515625 173.03515625 C139.47135498 172.28322998 139.47135498 172.28322998 138.64111328 171.51611328 C135.92822414 169.00985896 133.21405141 166.50499554 130.5 164 C129.41666043 163.00000676 128.33332709 162.00000676 127.25 161 C126.445625 160.2575 126.445625 160.2575 125.625 159.5 C29.75 71 29.75 71 28.12475586 69.49975586 C27.04226129 68.50054262 25.95974179 67.50135638 24.87719727 66.50219727 C22.15582492 63.99038165 19.43489805 61.47808667 16.71484375 58.96484375 C10.51443534 53.23684741 4.30329362 47.52103622 -1.92578125 41.82421875 C-4.1622296 39.77481084 -6.38622622 37.71255577 -8.60546875 35.64453125 C-9.20294922 35.08894531 -9.80042969 34.53335938 -10.41601562 33.9609375 C-11.57939666 32.87836463 -12.74091791 31.79378903 -13.90039062 30.70703125 C-17.5498872 26.52553615 -17.5498872 26.52553615 -21.45814514 29.34461975 Z " fill="#FDFEFD" transform="translate(245,37)"/>
<path d="M0 0 C5.83920621 4.81734513 11.20596276 10.05221529 16.54296875 15.41259766 C17.99369065 16.8686674 19.44966659 18.31932776 20.90625 19.76953125 C24.83115815 23.69192654 28.73258193 27.60562295 32.328125 31.8359375 C37.74877526 38.16272149 43.83049818 43.89607958 49.75 49.75 C52.18520882 52.15853899 54.617025 54.57043125 57.046875 56.984375 C57.6000238 57.52922546 58.15317261 58.07407593 58.7230835 58.63543701 C61.38685568 61.28221411 63.85538204 63.9121215 66 67 C68.68260721 66.5340993 71.14034521 65.94957293 73.70703125 65.02734375 C89.13636683 59.61252032 107.85061843 59.72522389 123 66 C124.54494141 66.63615234 124.54494141 66.63615234 126.12109375 67.28515625 C144.50857545 75.69420839 155.56223629 90.18952675 163.390625 108.19921875 C169.62435763 126.0443759 167.41786555 146.90150053 159.41650391 163.68701172 C150.69602493 180.94964566 136.18415644 191.89881327 118.4140625 199.0390625 C100.99033688 204.50633124 80.19287364 202.12934063 64.15136719 193.96606445 C47.03407094 184.70569282 35.82618828 169.73482773 29.5 151.625 C24.73461722 132.94640144 27.04407036 113.53335932 36.375 96.875 C36.75720703 96.2464209 37.13941406 95.6178418 37.53320312 94.97021484 C38.73922814 92.9960215 38.73922814 92.9960215 40 90 C38.80741957 86.48226555 36.51411688 84.29443107 33.89453125 81.734375 C33.07533203 80.92613281 32.25613281 80.11789063 31.41210938 79.28515625 C30.55423828 78.44855469 29.69636719 77.61195313 28.8125 76.75 C19.29609982 67.43109621 19.29609982 67.43109621 15.69921875 63.203125 C10.49450599 57.13032721 4.68455467 51.61786436 -1 46 C-18.58733624 28.61899563 -18.58733624 28.61899563 -23 22 C-20.48346359 19.45404894 -17.96099206 16.91405545 -15.4375 14.375 C-14.38079102 13.30572266 -14.38079102 13.30572266 -13.30273438 12.21484375 C-9.028445 7.92085719 -4.65527233 3.87837406 0 0 Z M64.05859375 102.84375 C56.09145175 111.24108325 52.57841264 121.54192107 52 133 C52.31885339 144.13088194 57.17784188 155.3852721 64.8125 163.5 C74.39591232 172.12322458 86.05103655 177 99 177 C113.22145346 175.79287398 123.9507862 170.57832902 133.75 160.25 C141.11057354 151.35241575 144.24262206 140.46971554 143.9140625 129 C142.60561143 118.06716441 137.38486503 107.07643443 129.16015625 99.67578125 C108.54552182 83.68359649 82.96913932 84.88443912 64.05859375 102.84375 Z " fill="#FEFEFE" transform="translate(216,158)"/>
<path d="M0 0 C1.65 0 3.3 0 5 0 C5.09796875 0.97839844 5.1959375 1.95679688 5.296875 2.96484375 C6.39584884 12.5998127 7.34978254 20.88324395 14.6875 27.8125 C24.07942499 35.21997454 34.46937353 36.3580985 46 38 C45.67 39.65 45.34 41.3 45 43 C35.55998305 45.51733785 25.86500176 44.3237941 17.39453125 39.5234375 C8.01140079 33.30587148 1.41074893 26.24047996 -1 15 C-1.87332054 3.74664107 -1.87332054 3.74664107 0 0 Z " fill="#FEFEFD" transform="translate(278,283)"/>
</svg>
