<?xml version="1.0" encoding="UTF-8"?>
<svg version="1.1" xmlns="http://www.w3.org/2000/svg" width="1500" height="1471">
<path d="M0 0 C3.33869731 1.34809943 5.6871586 3.96199538 8.23925781 6.42822266 C9.40911466 7.53444916 10.57968419 8.63992248 11.75097656 9.74462891 C12.31220215 10.27717285 12.87342773 10.8097168 13.45166016 11.35839844 C15.27872328 13.07522276 17.15197596 14.72991049 19.05175781 16.36572266 C22.42344889 19.28120183 25.71068648 22.28397908 28.98925781 25.30322266 C32.28952657 28.34212442 35.59875128 31.36478366 38.98925781 34.30322266 C42.92015031 37.70999615 46.74122354 41.2332505 50.56738281 44.75634766 C53.34419838 47.30877409 56.13906498 49.83305554 58.98925781 52.30322266 C62.92015031 55.70999615 66.74122354 59.2332505 70.56738281 62.75634766 C73.34419838 65.30877409 76.13906498 67.83305554 78.98925781 70.30322266 C82.86586858 73.66509672 86.64123684 77.13404938 90.41796875 80.60693359 C96.50379078 86.2012823 102.62222627 91.75818704 108.86425781 97.17822266 C112.7776471 100.58665849 116.59772751 104.09409781 120.41748047 107.60644531 C126.50339342 113.20103259 132.62205454 118.75803792 138.86425781 124.17822266 C142.83178505 127.63173827 146.69773421 131.19326205 150.56689453 134.75585938 C153.34384464 137.30848028 156.13889094 139.8329047 158.98925781 142.30322266 C162.92015031 145.70999615 166.74122354 149.2332505 170.56738281 152.75634766 C173.34419838 155.30877409 176.13906498 157.83305554 178.98925781 160.30322266 C182.86586858 163.66509672 186.64123684 167.13404938 190.41796875 170.60693359 C196.50379078 176.2012823 202.62222627 181.75818704 208.86425781 187.17822266 C212.7776471 190.58665849 216.59772751 194.09409781 220.41748047 197.60644531 C226.50339342 203.20103259 232.62205454 208.75803792 238.86425781 214.17822266 C242.77920364 217.58801418 246.60103178 221.09662228 250.421875 224.61083984 C255.24472692 229.04519268 260.11249804 233.42825167 264.98925781 237.80322266 C266.65618428 239.30293393 268.3228493 240.80293587 269.98925781 242.30322266 C270.81425781 243.04572266 271.63925781 243.78822266 272.48925781 244.55322266 C301.65592448 270.80322266 330.82259115 297.05322266 359.98925781 323.30322266 C360.81167969 324.04314453 361.63410156 324.78306641 362.48144531 325.54541016 C364.17518676 327.0703051 365.8678695 328.59637667 367.55957031 330.12353516 C371.28318064 333.48275548 375.010393 336.8330525 378.80175781 340.11572266 C383.02069272 343.78696622 387.10865893 347.59565992 391.20898438 351.39794922 C394.721029 354.64908745 398.2790974 357.83291481 401.89941406 360.96337891 C404.6329634 363.36992421 407.31039787 365.83625462 409.98925781 368.30322266 C413.28952657 371.34212442 416.59875128 374.36478366 419.98925781 377.30322266 C423.92015031 380.70999615 427.74122354 384.2332505 431.56738281 387.75634766 C434.34419838 390.30877409 437.13906498 392.83305554 439.98925781 395.30322266 C443.92015031 398.70999615 447.74122354 402.2332505 451.56738281 405.75634766 C454.34419838 408.30877409 457.13906498 410.83305554 459.98925781 413.30322266 C463.92015031 416.70999615 467.74122354 420.2332505 471.56738281 423.75634766 C474.34419838 426.30877409 477.13906498 428.83305554 479.98925781 431.30322266 C483.92015031 434.70999615 487.74122354 438.2332505 491.56738281 441.75634766 C494.34419838 444.30877409 497.13906498 446.83305554 499.98925781 449.30322266 C503.92015031 452.70999615 507.74122354 456.2332505 511.56738281 459.75634766 C514.34419838 462.30877409 517.13906498 464.83305554 519.98925781 467.30322266 C523.92015031 470.70999615 527.74122354 474.2332505 531.56738281 477.75634766 C534.34419838 480.30877409 537.13906498 482.83305554 539.98925781 485.30322266 C543.92015031 488.70999615 547.74122354 492.2332505 551.56738281 495.75634766 C554.34419838 498.30877409 557.13906498 500.83305554 559.98925781 503.30322266 C563.92015031 506.70999615 567.74122354 510.2332505 571.56738281 513.75634766 C574.34419838 516.30877409 577.13906498 518.83305554 579.98925781 521.30322266 C583.92015031 524.70999615 587.74122354 528.2332505 591.56738281 531.75634766 C594.95212553 534.86757581 598.38238491 537.9144014 601.86035156 540.92041016 C604.09457496 542.89636552 606.27943291 544.92163514 608.46289062 546.95336914 C614.2936842 552.36575758 619.78263025 557.39398057 627.11425781 560.67822266 C631.60191618 562.81728161 633.50535358 565.53401225 635.98925781 569.80322266 C635.98925781 570.79322266 635.98925781 571.78322266 635.98925781 572.80322266 C636.58738281 573.07134766 637.18550781 573.33947266 637.80175781 573.61572266 C639.96150589 574.78815733 641.34716037 575.99691547 642.98925781 577.80322266 C641.46216818 581.23917432 639.38998736 583.9223472 636.98925781 586.80322266 C637.64925781 588.45322266 638.30925781 590.10322266 638.98925781 591.80322266 C613.98932721 597.31791323 588.67455041 597.10164741 563.21533203 596.99884033 C559.80540229 596.9879363 556.39551222 596.98837467 552.98556805 596.98897839 C549.66104529 596.98870516 546.33654777 596.98320235 543.01203346 596.97597694 C541.44416302 596.97283238 539.87628978 596.97083293 538.30841637 596.97008324 C513.75239975 596.94541322 513.75239975 596.94541322 509.13378906 592.88916016 C507.99731825 591.67583615 506.88684596 590.43770857 505.80175781 589.17822266 C504.60544277 587.88897422 503.40754123 586.60119597 502.20800781 585.31494141 C501.64984375 584.70054199 501.09167969 584.08614258 500.51660156 583.453125 C497.5838754 580.28506819 494.31230315 577.54749884 490.98925781 574.80322266 C490.09335938 574.05298828 489.19746094 573.30275391 488.27441406 572.52978516 C482.4803365 567.68874947 482.4803365 567.68874947 476.30175781 563.36572266 C475.15707031 562.59228516 475.15707031 562.59228516 473.98925781 561.80322266 C473.98925781 561.14322266 473.98925781 560.48322266 473.98925781 559.80322266 C473.4158667 559.54001221 472.84247559 559.27680176 472.25170898 559.00561523 C469.8534914 557.73106882 467.90498973 556.2662697 465.79003906 554.56494141 C452.05412388 543.71696103 437.11005246 534.5691678 421.98925781 525.80322266 C421.24885254 525.36913086 420.50844727 524.93503906 419.74560547 524.48779297 C330.09626563 472.10342686 218.46732594 460.44907164 118.58349609 485.87353516 C78.18682773 496.5932109 39.24996394 513.31961807 3.98925781 535.80322266 C3.40305664 536.17640625 2.81685547 536.54958984 2.21289062 536.93408203 C-1.24529991 539.15348667 -4.63898832 541.45503693 -8.01074219 543.80322266 C-8.54828125 544.17624512 -9.08582031 544.54926758 -9.63964844 544.93359375 C-36.60612731 563.70723864 -62.79545435 585.6186229 -84.01074219 610.80322266 C-84.80609375 611.72103516 -85.60144531 612.63884766 -86.42089844 613.58447266 C-152.6425003 690.27108327 -187.40918857 789.47279023 -184.76123047 913.21289062 C-179.0052886 985.57185755 -154.03086178 1053.50779252 -113.54980469 1113.56494141 C-112.93266602 1114.48065918 -112.31552734 1115.39637695 -111.6796875 1116.33984375 C-110.67578577 1117.8216121 -109.66642547 1119.29973377 -108.64648438 1120.77050781 C-106.01074219 1124.59684645 -106.01074219 1124.59684645 -106.01074219 1126.80322266 C-111.27230397 1126.8548066 -116.53084892 1126.86837689 -121.79248047 1126.81982422 C-123.61388271 1126.80619277 -125.43543016 1126.81350921 -127.25683594 1126.82666016 C-129.73017582 1126.74383903 -131.66469078 1126.58077222 -134.01074219 1125.80322266 C-135.08521575 1124.21268314 -135.08521575 1124.21268314 -136.01119518 1122.30198574 C-137.69619638 1119.8013437 -138.51618693 1118.93704413 -141.46237528 1118.13983643 C-144.72172785 1117.88462163 -147.92158588 1117.85034733 -151.19099426 1117.88551331 C-152.44074986 1117.87136523 -153.69050545 1117.85721715 -154.97813243 1117.84264034 C-158.44467397 1117.80433099 -161.9100005 1117.80946827 -165.37668216 1117.82167733 C-169.11571679 1117.8272421 -172.85440259 1117.79254944 -176.59329224 1117.76274109 C-183.07029901 1117.71661527 -189.54698423 1117.69600759 -196.02414894 1117.69272041 C-205.38895801 1117.68793088 -214.75327838 1117.64467424 -224.1179262 1117.59202182 C-239.31123878 1117.50764288 -254.50449483 1117.45438304 -269.69799805 1117.4206543 C-284.4572064 1117.38782311 -299.21624803 1117.34036017 -313.9753418 1117.27319336 C-314.88506183 1117.26905843 -315.79478186 1117.26492351 -316.73206917 1117.26066328 C-321.29585886 1117.23982925 -325.85964716 1117.2187073 -330.42343485 1117.19744217 C-368.2857619 1117.02139394 -406.14812372 1116.89583251 -444.01074219 1116.80322266 C-444.01074219 1115.81322266 -444.01074219 1114.82322266 -444.01074219 1113.80322266 C-446.98074219 1113.80322266 -449.95074219 1113.80322266 -453.01074219 1113.80322266 C-453.77333006 1029.04346225 -454.18934484 944.28225833 -454.52313036 859.51988775 C-454.55864306 850.50769489 -454.59504393 841.49550604 -454.63201495 832.48331905 C-454.94169069 756.92278543 -455.07479639 681.36433479 -455.01074219 605.80322266 C-484.41066454 605.38170501 -484.41066454 605.38170501 -513.81152344 605.03369141 C-514.78884241 605.0234664 -515.76616138 605.01324139 -516.77309608 605.00270653 C-541.10718895 604.75342586 -565.44132372 604.65416671 -589.77658844 604.62155151 C-593.07981322 604.61571104 -596.38300621 604.60600374 -599.68621826 604.59521484 C-604.89724549 604.57869818 -610.1081864 604.57230957 -615.31923866 604.57402611 C-617.24682364 604.5731846 -619.17441032 604.56900791 -621.10198021 604.56133461 C-623.73711301 604.55161067 -626.37194299 604.55429693 -629.00708008 604.56030273 C-629.7808795 604.55468071 -630.55467892 604.54905869 -631.3519268 604.5432663 C-635.11919211 604.5656258 -636.79464385 604.6591571 -640.01074219 606.80322266 C-644.63074219 601.85322266 -649.25074219 596.90322266 -654.01074219 591.80322266 C-651.91176374 587.60526576 -649.43412084 585.17159513 -646.01074219 582.11572266 C-645.42768311 581.5868042 -644.84462402 581.05788574 -644.24389648 580.51293945 C-642.50453803 578.93735253 -640.7582758 577.36973075 -639.01074219 575.80322266 C-637.65916016 574.58119141 -637.65916016 574.58119141 -636.28027344 573.33447266 C-633.86255607 571.1512239 -631.43781197 568.97606581 -629.01074219 566.80322266 C-623.60736361 561.95851327 -618.22709796 557.0911319 -612.88574219 552.17822266 C-609.64857002 549.20103985 -606.3993649 546.2436941 -603.07324219 543.36572266 C-598.94319034 539.78519954 -594.94470148 536.06742504 -590.93554688 532.35302734 C-586.00427172 527.78724334 -581.01691896 523.28673171 -576.01074219 518.80322266 C-574.34368519 517.30365647 -572.67702223 515.80365212 -571.01074219 514.30322266 C-568.53571985 512.07493152 -566.06002465 509.84743425 -563.58105469 507.62353516 C-558.99043655 503.50224539 -554.42624251 499.35451552 -549.88574219 495.17822266 C-546.64857002 492.20103985 -543.3993649 489.2436941 -540.07324219 486.36572266 C-536.48115628 483.25358142 -532.99522226 480.0345018 -529.51074219 476.80322266 C-525.42233559 473.01190152 -521.30058193 469.27744449 -517.08496094 465.62744141 C-512.3193395 461.43620749 -507.67884194 457.1024849 -503.01074219 452.80322266 C-497.10329924 447.36254063 -491.19589754 441.93267273 -485.12792969 436.67041016 C-481.90030737 433.8239093 -478.7401593 430.9042864 -475.57324219 427.99072266 C-471.60201475 424.33878988 -467.5970034 420.72626728 -463.58105469 417.12353516 C-460.66645745 414.49242458 -457.77536809 411.83667849 -454.88574219 409.17822266 C-451.01440883 405.61815228 -447.10126167 402.11616279 -443.12792969 398.67041016 C-439.90185701 395.82527595 -436.74338779 392.90689387 -433.57763672 389.99511719 C-427.95665223 384.82706692 -422.27350885 379.7291876 -416.58886719 374.63134766 C-411.99626114 370.5067779 -407.4289477 366.35700373 -402.88574219 362.17822266 C-399.64857002 359.20103985 -396.3993649 356.2436941 -393.07324219 353.36572266 C-388.94319034 349.78519954 -384.94470148 346.06742504 -380.93554688 342.35302734 C-376.00427172 337.78724334 -371.01691896 333.28673171 -366.01074219 328.80322266 C-364.34368519 327.30365647 -362.67702223 325.80365212 -361.01074219 324.30322266 C-358.53571985 322.07493152 -356.06002465 319.84743425 -353.58105469 317.62353516 C-349.03442426 313.54173595 -344.51063407 309.4364779 -340.01074219 305.30322266 C-333.9107914 299.70027614 -327.75513172 294.16109456 -321.58886719 288.63134766 C-316.99626114 284.5067779 -312.4289477 280.35700373 -307.88574219 276.17822266 C-304.64857002 273.20103985 -301.3993649 270.2436941 -298.07324219 267.36572266 C-293.88964361 263.74110176 -289.84639609 259.96937198 -285.78833008 256.20581055 C-282.30002883 252.97646395 -278.76340039 249.81823229 -275.16699219 246.70947266 C-272.23833856 244.12037308 -269.37676042 241.46127584 -266.51074219 238.80322266 C-262.45059255 235.03768706 -258.35662817 231.3310224 -254.16699219 227.70947266 C-251.23833856 225.12037308 -248.37676042 222.46127584 -245.51074219 219.80322266 C-241.45059255 216.03768706 -237.35662817 212.3310224 -233.16699219 208.70947266 C-230.23833806 206.12037263 -227.37677546 203.46126032 -224.51074219 200.80322266 C-220.42505488 197.01438108 -216.3068085 193.28150319 -212.09277344 189.63525391 C-208.87427342 186.80321543 -205.72780808 183.89294317 -202.57299805 180.99047852 C-198.60183041 177.33865089 -194.59691779 173.72619048 -190.58105469 170.12353516 C-187.66645772 167.49242482 -184.77534994 164.83669791 -181.88574219 162.17822266 C-178.64861128 159.20099625 -175.39936363 156.243693 -172.07324219 153.36572266 C-167.88964361 149.74110176 -163.84639609 145.96937198 -159.78833008 142.20581055 C-156.30002883 138.97646395 -152.76340039 135.81823229 -149.16699219 132.70947266 C-146.23833856 130.12037308 -143.37676042 127.46127584 -140.51074219 124.80322266 C-136.45059255 121.03768706 -132.35662817 117.3310224 -128.16699219 113.70947266 C-125.23833856 111.12037308 -122.37676042 108.46127584 -119.51074219 105.80322266 C-115.45059255 102.03768706 -111.35662817 98.3310224 -107.16699219 94.70947266 C-104.23833856 92.12037308 -101.37676042 89.46127584 -98.51074219 86.80322266 C-94.45059255 83.03768706 -90.35662817 79.3310224 -86.16699219 75.70947266 C-83.23833856 73.12037308 -80.37676042 70.46127584 -77.51074219 67.80322266 C-73.45059255 64.03768706 -69.35662817 60.3310224 -65.16699219 56.70947266 C-62.23833856 54.12037308 -59.37676042 51.46127584 -56.51074219 48.80322266 C-53.04787172 45.59162624 -49.58425905 42.39219486 -46.01074219 39.30322266 C-41.89869926 35.74639227 -37.92304599 32.04738582 -33.93530273 28.3527832 C-29.00406559 23.78708731 -24.01557747 19.28807505 -19.01074219 14.80322266 C-18.15480469 14.02978516 -17.29886719 13.25634766 -16.41699219 12.45947266 C-14.7272516 10.93259863 -13.03343091 9.41022404 -11.33496094 7.89306641 C-9.86310811 6.56963571 -8.40533651 5.23022876 -6.96777344 3.86962891 C-2.51032689 -0.24566822 -2.51032689 -0.24566822 0 0 Z " fill="#FEFEFE" transform="translate(708.0107421875,71.19677734375)"/>
<path d="M0 0 C3.12601009 0.00314927 6.25105968 -0.02036628 9.37695312 -0.0456543 C23.79319171 -0.09090101 37.77886712 1.14374636 52.02539062 3.31567383 C53.26611328 3.50379639 54.50683594 3.69191895 55.78515625 3.88574219 C123.89347572 15.11835218 191.7925238 54.09378821 234.02539062 109.31567383 C235.02553626 110.57700833 236.02693674 111.83734842 237.02929688 113.09692383 C277.25480449 164.09336019 299.47703358 227.38768476 299.34106445 292.2902832 C299.33791519 295.4162933 299.36143073 298.54134289 299.38671875 301.66723633 C299.43196546 316.08347491 298.19731809 330.06915032 296.02539062 344.31567383 C295.83726807 345.55639648 295.64914551 346.79711914 295.45532227 348.07543945 C290.02992957 380.97201283 278.0801028 412.33716963 262.03320312 441.45825195 C260.63002028 444.04435056 259.32109415 446.67443202 258.02539062 449.31567383 C258.51112895 449.73077593 258.99686728 450.14587803 259.49732494 450.57355899 C264.50612584 454.89868295 269.26174234 459.40780558 273.93481445 464.09138489 C274.68893993 464.84324481 275.44306541 465.59510474 276.22004318 466.36974829 C278.72653781 468.86995224 281.22948498 471.37367623 283.73242188 473.87744141 C285.5363357 475.6783609 287.34045378 477.47907583 289.14476013 479.27960205 C293.52255527 483.64950011 297.89797491 488.02176375 302.27210277 492.39533231 C305.82526231 495.94801557 309.37921276 499.4999057 312.93371582 503.05124474 C323.01550316 513.12424035 333.0952066 523.19931456 343.17222333 533.27708272 C343.98536878 534.0902881 343.98536878 534.0902881 344.81494141 534.91992188 C345.3576999 535.46272125 345.90045839 536.00552062 346.45966411 536.56476846 C355.27865465 545.38416647 364.10263768 554.19855074 372.92886436 563.01070646 C381.99558707 572.06308864 391.05859988 581.11917031 400.11772251 590.17915839 C405.20247662 595.26424497 410.2887706 600.34776932 415.37905884 605.42731667 C420.15740095 610.19563999 424.93059354 614.96905754 429.70027351 619.74604797 C431.45621562 621.50304157 433.21388574 623.25831003 434.97335625 625.01177025 C437.36413778 627.39490924 439.7487567 629.78404366 442.13183594 632.17488098 C442.83842252 632.876324 443.5450091 633.57776702 444.27300739 634.30046588 C444.90553519 634.93759248 445.53806299 635.57471907 446.1897583 636.23115253 C447.01711927 637.05818746 447.01711927 637.05818746 447.86119461 637.90193015 C449.02539062 639.31567383 449.02539062 639.31567383 449.02539062 641.31567383 C449.68539062 641.31567383 450.34539063 641.31567383 451.02539062 641.31567383 C449.56258755 644.62190731 447.71630679 646.97161281 445.27539062 649.62817383 C444.47617188 650.49958008 443.67695312 651.37098633 442.85351562 652.26879883 C441.91107706 653.28467416 440.96834665 654.30027879 440.02539062 655.31567383 C439.48205078 655.90413086 438.93871094 656.49258789 438.37890625 657.09887695 C432.00961289 663.9959729 425.59919452 670.81767884 418.90429688 677.40161133 C417.15518672 679.18344912 415.55216854 681.01658804 413.96289062 682.94067383 C411.98370491 685.30499838 409.94196408 687.32531988 407.58789062 689.31567383 C402.65798515 693.4951698 398.17753978 698.11051633 393.65649414 702.72192383 C390.61936322 705.80034081 387.55307572 708.76481239 384.26367188 711.57348633 C380.87124406 714.49728306 377.68381046 717.5928179 374.53710938 720.77661133 C374.0623819 721.25684753 373.58765442 721.73708374 373.09854126 722.23187256 C371.13227744 724.22581974 369.16988921 726.2234933 367.21166992 728.2253418 C365.76199902 729.70512034 364.30624102 731.17868887 362.84960938 732.65161133 C361.99455811 733.52350098 361.13950684 734.39539062 360.25854492 735.29370117 C358.02539062 737.31567383 358.02539062 737.31567383 355.02539062 738.31567383 C353.36914062 737.26879883 353.36914062 737.26879883 351.52539062 735.56567383 C350.82414062 734.92114258 350.12289062 734.27661133 349.40039062 733.61254883 C346.25684949 730.57241365 343.16818163 727.47978885 340.09594727 724.36767578 C336.87391997 721.11664633 333.53287196 718.09199226 330.05273438 715.12426758 C326.70659126 712.13917266 323.6094511 708.90684615 320.45898438 705.71801758 C318.39296697 703.6785301 316.29533513 701.76059583 314.08789062 699.87817383 C310.73613966 697.01395028 307.61982646 693.9523329 304.52539062 690.81567383 C301.45148535 687.6998826 298.35836918 684.65690144 295.02539062 681.81567383 C291.17496047 678.53333993 287.64393483 674.96312534 284.09399414 671.36474609 C280.87172614 668.11566776 277.53198417 665.0912352 274.05273438 662.12426758 C270.70659126 659.13917266 267.6094511 655.90684615 264.45898438 652.71801758 C262.39296697 650.6785301 260.29533513 648.76059583 258.08789062 646.87817383 C254.73613966 644.01395028 251.61982646 640.9523329 248.52539062 637.81567383 C245.45148535 634.6998826 242.35836918 631.65690144 239.02539062 628.81567383 C235.17496047 625.53333993 231.64393483 621.96312534 228.09399414 618.36474609 C224.87172614 615.11566776 221.53198417 612.0912352 218.05273438 609.12426758 C214.70659126 606.13917266 211.6094511 602.90684615 208.45898438 599.71801758 C206.39296697 597.6785301 204.29533513 595.76059583 202.08789062 593.87817383 C198.21921265 590.57221265 194.66474758 586.98422705 191.09423828 583.36499023 C187.87188654 580.1158321 184.53207246 577.09131049 181.05273438 574.12426758 C177.71617327 571.14772078 174.62756517 567.92525976 171.48632812 564.74536133 C168.66355174 561.95842972 165.72893086 559.35278601 162.70117188 556.79223633 C161.02539062 555.31567383 161.02539062 555.31567383 158.83789062 552.81567383 C157.13690759 551.05615412 157.13690759 551.05615412 154.85351562 551.47192383 C151.22071359 552.55574322 148.19100556 554.38227466 144.96289062 556.31567383 C107.18661795 578.12465599 60.89893308 591.32213908 17.17382812 591.51879883 C16.15729156 591.5244989 15.140755 591.53019897 14.09341431 591.53607178 C11.94705221 591.5454672 9.80067604 591.55203387 7.65429688 591.5559082 C4.45740605 591.56550271 1.26119059 591.59653275 -1.93554688 591.62817383 C-16.49382581 591.70302937 -30.58851511 590.52191169 -44.97460938 588.31567383 C-46.2146875 588.1274707 -47.45476562 587.93926758 -48.73242188 587.74536133 C-99.28353152 579.4177654 -152.11706733 555.9906699 -189.67382812 520.47583008 C-191.62924345 518.6399308 -193.62199703 516.8887859 -195.65429688 515.13989258 C-207.35096414 504.94081185 -218.63433517 493.72863637 -227.97460938 481.31567383 C-228.91012183 480.10811123 -229.84637623 478.90112322 -230.78320312 477.69458008 C-267.330117 430.23480127 -291.90579986 369.92572173 -292.17773438 309.46411133 C-292.18343445 308.44757477 -292.18913452 307.43103821 -292.19500732 306.38369751 C-292.20440275 304.23733541 -292.21096942 302.09095924 -292.21484375 299.94458008 C-292.22443826 296.74768926 -292.2554683 293.5514738 -292.28710938 290.35473633 C-292.36196491 275.79645739 -291.18084724 261.70176809 -288.97460938 247.31567383 C-288.69230469 245.45555664 -288.69230469 245.45555664 -288.40429688 243.55786133 C-278.36617085 182.62329942 -247.48973226 127.93468499 -204.34960938 84.44067383 C-203.49101318 83.57265137 -202.63241699 82.70462891 -201.74780273 81.81030273 C-195.79906783 75.89160908 -189.55524399 70.51806711 -182.97460938 65.31567383 C-182.26884766 64.75058105 -181.56308594 64.18548828 -180.8359375 63.60327148 C-170.26451693 55.18793394 -159.20821245 47.71030562 -147.76782227 40.52978516 C-145.83947397 39.30659832 -145.83947397 39.30659832 -143.97460938 37.31567383 C-142.03086897 36.57618492 -140.08544897 35.84052544 -138.12841797 35.13696289 C-134.89017057 33.90215624 -131.85393654 32.29248428 -128.78710938 30.69067383 C-88.54023135 10.30823672 -45.07083053 -0.09442213 0 0 Z M-64.97460938 149.31567383 C-65.70083496 149.65969238 -66.42706055 150.00371094 -67.17529297 150.3581543 C-103.56448577 167.79277984 -132.33137859 200.3107316 -146.02587891 238.20214844 C-159.27004585 277.25967107 -157.44344374 319.10489994 -139.56835938 356.40942383 C-121.26724839 393.37793686 -89.52412515 422.70981045 -50.47460938 436.69067383 C-47.65965975 437.63487846 -44.82739733 438.49341811 -41.97460938 439.31567383 C-40.79294189 439.65937012 -40.79294189 439.65937012 -39.58740234 440.01000977 C-0.63571368 451.01693413 39.7914588 446.96038665 76.02539062 429.31567383 C76.6813623 429.00259277 77.33733398 428.68951172 78.01318359 428.36694336 C112.13865949 411.92648838 140.28067103 380.50972542 153.68554688 345.13598633 C154.90418566 341.55087772 155.99498682 337.9588873 157.02539062 334.31567383 C157.39148437 333.13618164 157.75757813 331.95668945 158.13476562 330.74145508 C165.04956651 307.96770868 169.08429025 273.51394429 158.04882812 251.35473633 C157.36200976 250.11217181 156.67450063 248.86998888 155.98632812 247.62817383 C154.68026812 244.48513512 154.22474335 241.35469092 153.65039062 238.00317383 C152.1520494 229.79095391 149.23788898 223.1895689 143.90039062 216.75317383 C142.02957617 214.32111504 141.29441004 212.49028922 140.27539062 209.62817383 C137.98521786 203.56913407 134.24367597 199.15646342 130.02539062 194.31567383 C129.49558594 193.68790039 128.96578125 193.06012695 128.41992188 192.41333008 C127.45925952 191.27753356 126.49064004 190.14841305 125.51367188 189.02661133 C124.45773677 187.81270168 123.41471501 186.5875048 122.38085938 185.35473633 C118.8613646 181.20761156 115.18977696 177.52738967 111.03320312 174.01879883 C109.75307321 172.93292988 108.49475929 171.82041792 107.26757812 170.67504883 C87.63343133 152.48583925 60.96528541 141.52640233 35.02539062 136.31567383 C33.22134766 135.94055664 33.22134766 135.94055664 31.38085938 135.55786133 C28.25926977 135.00029438 25.18210152 134.61504977 22.02539062 134.31567383 C21.36780762 134.25009277 20.71022461 134.18451172 20.03271484 134.11694336 C-9.27451342 131.36382009 -38.48296275 136.50853193 -64.97460938 149.31567383 Z " fill="#FEFEFE" transform="translate(931.974609375,663.684326171875)"/>
<path d="M0 0 C0.495 1.485 0.495 1.485 1 3 C-11.64455156 6.38051151 -24.31497933 8.82621416 -37.25 10.75 C-37.96364716 10.85645844 -38.67729431 10.96291687 -39.41256714 11.07260132 C-60.19883883 14.15340933 -60.19883883 14.15340933 -69.5625 14.0625 C-71.38974609 14.04896484 -71.38974609 14.04896484 -73.25390625 14.03515625 C-74.16011719 14.02355469 -75.06632813 14.01195312 -76 14 C-76 13.67 -76 13.34 -76 13 C-75.12859375 12.81824219 -74.2571875 12.63648438 -73.359375 12.44921875 C-66.49769316 11.00113654 -59.68837155 9.46403042 -52.9140625 7.6484375 C-50.00369356 7.00082189 -47.11453489 6.63509888 -44.15527344 6.29052734 C-40.33296797 5.7752868 -36.58032376 4.93957091 -32.8125 4.125 C-31.98242432 3.95009033 -31.15234863 3.77518066 -30.29711914 3.5949707 C-25.4769836 2.57051121 -20.70996992 1.41745959 -15.9375 0.1875 C-10.38821309 -1.13579149 -5.58818421 -1.04699614 0 0 Z " fill="#FFFFFF" transform="translate(1033,1369)"/>
<path d="M0 0 C0 0.33 0 0.66 0 1 C-19.54500179 3.14347386 -38.93104809 3.2474278 -58.56085205 3.1373291 C-62.68507777 3.11648248 -66.80932999 3.10765441 -70.93359375 3.09765625 C-78.9557992 3.07651691 -86.97787989 3.04260713 -95 3 C-95.33 2.34 -95.66 1.68 -96 1 C-88.06049248 0.86657462 -80.1209436 0.7360705 -72.1813345 0.60884857 C-68.49073951 0.54962929 -64.80016313 0.48956867 -61.10961914 0.42724609 C-40.73768761 0.08402683 -20.37490585 -0.07031378 0 0 Z " fill="#E3EDDF" transform="translate(1331,665)"/>
<path d="M0 0 C3.15839567 3.15839567 3.87376504 7.23663926 5.1875 11.4375 C5.47302734 12.30955078 5.75855469 13.18160156 6.05273438 14.08007812 C6.31763672 14.91861328 6.58253906 15.75714844 6.85546875 16.62109375 C7.22128052 17.77242798 7.22128052 17.77242798 7.59448242 18.94702148 C8 21 8 21 7 24 C2.63716149 16.17353397 0 9.02654505 0 0 Z " fill="#BDD4B2" transform="translate(1084,895)"/>
<path d="M0 0 C0.66 0 1.32 0 2 0 C2.98484108 1.74681293 3.96266187 3.4975851 4.9375 5.25 C5.48277344 6.22453125 6.02804687 7.1990625 6.58984375 8.203125 C7.76610835 10.53610409 8.52101691 12.45350762 9 15 C3.09123687 11.55322151 1.90865884 6.18448115 0 0 Z " fill="#BDD4B2" transform="translate(1070,869)"/>
<path d="M0 0 C1.32 1.65 2.64 3.3 4 5 C1.36 5.33 -1.28 5.66 -4 6 C-2.68 4.02 -1.36 2.04 0 0 Z " fill="#C2D7B9" transform="translate(1343,658)"/>
<path d="M0 0 C1 4 1 4 1 4 Z " fill="#FFFFFF" transform="translate(1335,998)"/>
<path d="" fill="#FFFFFF" transform="translate(0,0)"/>
<path d="" fill="#FFFFFF" transform="translate(0,0)"/>
<path d="" fill="#FFFFFF" transform="translate(0,0)"/>
<path d="" fill="#FFFFFF" transform="translate(0,0)"/>
<path d="" fill="#FFFFFF" transform="translate(0,0)"/>
<path d="" fill="#FFFFFF" transform="translate(0,0)"/>
</svg>
